<svg width="273" height="823" viewBox="0 0 273 823" fill="none" xmlns="http://www.w3.org/2000/svg">
<g opacity="0.0830842">
<path d="M168.2 813.3L112.7 722.8L113.5 722.3L169.1 812.8L168.2 813.3Z" fill="#698CA0"/>
<rect x="62.7253" y="812.469" width="103.1" height="0.999998" transform="rotate(-61.0333 62.7253 812.469)" fill="#698CA0"/>
<rect x="-57.104" y="426.638" width="0.999975" height="213.995" transform="rotate(-26.3729 -57.104 426.638)" fill="#698CA0"/>
<rect x="-56.787" y="426.948" width="1.00002" height="209.605" transform="rotate(-77.2854 -56.787 426.948)" fill="#698CA0"/>
<rect x="37.9987" y="617.93" width="182.096" height="0.99998" transform="rotate(-53.0934 37.9987 617.93)" fill="#698CA0"/>
<rect x="52.7614" y="268.098" width="0.999957" height="225.49" transform="rotate(-24.7915 52.7614 268.098)" fill="#698CA0"/>
<rect x="52.9122" y="268.225" width="0.999964" height="113.296" transform="rotate(-51.9738 52.9122 268.225)" fill="#698CA0"/>
<rect x="141.951" y="337.661" width="0.999968" height="134.996" transform="rotate(-2.24498 141.951 337.661)" fill="#698CA0"/>
<rect x="142.123" y="337.477" width="160.404" height="1.00003" transform="rotate(-64.4189 142.123 337.477)" fill="#698CA0"/>
<rect x="52.8633" y="267.613" width="172.908" height="1.00004" transform="rotate(-56.4355 52.8633 267.613)" fill="#698CA0"/>
<rect x="148.401" y="124.158" width="1.00003" height="93.6027" transform="rotate(-42.313 148.401 124.158)" fill="#698CA0"/>
<path d="M52.9 268.3L-36.7 177L-36.1 176.2L53.5 267.5L52.9 268.3Z" fill="#698CA0"/>
<path d="M-36.1 176.9L-36.8 176.2L2.60001 111.4L3.30001 112.2L-36.1 176.9Z" fill="#698CA0"/>
<rect x="2.46112" y="111.899" width="0.999963" height="163.994" transform="rotate(-17.8551 2.46112 111.899)" fill="#698CA0"/>
<rect x="112.669" y="722.419" width="95.6025" height="1.00003" transform="rotate(-68.106 112.669 722.419)" fill="#698CA0"/>
<path d="M27.4 769.8L37.9 618.1L38.9 618.2L28.4 769.9L27.4 769.8Z" fill="#698CA0"/>
<rect x="-16.5989" y="630.837" width="1.00003" height="100.503" transform="rotate(-28.2154 -16.5989 630.837)" fill="#698CA0"/>
<rect x="31.4285" y="719.718" width="1.00002" height="81.8018" transform="rotate(-87.6764 31.4285 719.718)" fill="#698CA0"/>
<rect x="-16.3951" y="631.03" width="0.999999" height="158.6" transform="rotate(-54.5776 -16.3951 631.03)" fill="#698CA0"/>
<rect x="-11.8544" y="379.667" width="0.999987" height="300.596" transform="rotate(-32.2088 -11.8544 379.667)" fill="#698CA0"/>
<rect x="148.322" y="633.542" width="131.805" height="1.00004" transform="rotate(-62.4202 148.322 633.542)" fill="#698CA0"/>
<rect x="-11.6822" y="379.858" width="0.999969" height="184.494" transform="rotate(-59.6809 -11.6822 379.858)" fill="#698CA0"/>
<rect x="-11.9089" y="379.342" width="224.192" height="0.999966" transform="rotate(-78.0237 -11.9089 379.342)" fill="#698CA0"/>
<rect x="-11.9294" y="379.641" width="1.00004" height="365.016" transform="rotate(-19.9552 -11.9294 379.641)" fill="#698CA0"/>
<rect x="35.0207" y="160.566" width="0.999962" height="179.793" transform="rotate(-79.4317 35.0207 160.566)" fill="#698CA0"/>
<rect x="34.6783" y="160.336" width="1.00005" height="207.51" transform="rotate(-31.1563 34.6783 160.336)" fill="#698CA0"/>
<rect x="-11.7046" y="379.101" width="290.891" height="0.999969" transform="rotate(-39.8679 -11.7046 379.101)" fill="#698CA0"/>
<rect x="2.79846" y="112.274" width="0.999958" height="224.091" transform="rotate(-68.7391 2.79846 112.274)" fill="#698CA0"/>
<rect x="27.4642" y="770.181" width="0.999999" height="55.6" transform="rotate(-39.4571 27.4642 770.181)" fill="#698CA0"/>
<path d="M168.4 813.5L63 813.2L63.4 812.3L168.9 812.6L168.4 813.5Z" fill="#698CA0"/>
<rect x="14.2378" y="794.955" width="28.5999" height="0.999996" transform="rotate(-62.5612 14.2378 794.955)" fill="#698CA0"/>
<rect x="38.3479" y="618.694" width="0.999963" height="111.496" transform="rotate(-81.9461 38.3479 618.694)" fill="#698CA0"/>
<rect x="31.1216" y="718.881" width="269.603" height="1.00001" transform="rotate(-48.6244 31.1216 718.881)" fill="#698CA0"/>
<rect x="147.498" y="473.017" width="1.00002" height="76.2017" transform="rotate(-54.3391 147.498 473.017)" fill="#698CA0"/>
<rect x="142.017" y="337.886" width="1.00002" height="191.504" transform="rotate(-20.548 142.017 337.886)" fill="#698CA0"/>
<rect x="2.86212" y="112.281" width="0.999967" height="146.295" transform="rotate(-85.2968 2.86212 112.281)" fill="#698CA0"/>
<rect x="2.5365" y="111.519" width="141.899" height="0.999996" transform="rotate(-51.325 2.5365 111.519)" fill="#698CA0"/>
<rect x="91.1853" y="1.24304" width="1.00001" height="135.501" transform="rotate(-24.948 91.1853 1.24304)" fill="#698CA0"/>
<path d="M149.2 124.1L148.4 123.5L218.3 28.8L219.1 29.4L149.2 124.1Z" fill="#698CA0"/>
<path d="M91.7 1.5V0.5L218.8 28.6L218.7 29.6L91.7 1.5Z" fill="#698CA0"/>
<path d="M211.3 193L218.2 29L219.2 29.1L212.3 193.1L211.3 193Z" fill="#698CA0"/>
<path d="M-36.3 177.1L-36.5 176.1L35 159.6L35.2 160.6L-36.3 177.1Z" fill="#698CA0"/>
<rect x="112.965" y="723" width="1.00002" height="157.903" transform="rotate(-75.2801 112.965 723)" fill="#698CA0"/>
<path d="M169.1 813.2L168.2 812.9L265.4 762.5L266.3 762.8L169.1 813.2Z" fill="#698CA0"/>
<rect x="148.383" y="634.19" width="1" height="174.1" transform="rotate(-42.2602 148.383 634.19)" fill="#698CA0"/>
<path d="M-6.7657 386.237C-3.01235 383.605 -2.10303 378.429 -4.73469 374.676C-7.36634 370.923 -12.5424 370.013 -16.2958 372.645C-20.0491 375.277 -20.9584 380.453 -18.3268 384.206C-15.6951 387.959 -10.519 388.869 -6.7657 386.237Z" fill="#698CA0"/>
<path fill-rule="evenodd" clip-rule="evenodd" d="M-18.6 369.2C-13 365.3 -5.19999 366.6 -1.19999 372.3C2.70001 377.9 1.40001 385.7 -4.29999 389.7C-9.89999 393.6 -17.7 392.3 -21.7 386.6C-25.6 381 -24.3 373.2 -18.6 369.2ZM-17.1 371.5C-21.5 374.6 -22.6 380.7 -19.5 385.1C-16.4 389.5 -10.3 390.5 -5.89999 387.5C-1.49999 384.4 -0.39999 378.3 -3.49999 373.9C-6.59999 369.5 -12.7 368.4 -17.1 371.5Z" fill="#698CA0"/>
<path d="M213.375 522.259C216.269 520.229 216.97 516.238 214.941 513.344C212.912 510.45 208.921 509.749 206.026 511.778C203.132 513.807 202.431 517.798 204.46 520.692C206.49 523.587 210.481 524.288 213.375 522.259Z" fill="#698CA0"/>
<path fill-rule="evenodd" clip-rule="evenodd" d="M204.2 509.2C208.6 506.1 214.6 507.2 217.6 511.5C220.6 515.8 219.6 521.8 215.3 524.9C210.9 528 204.9 526.9 201.9 522.6C198.8 518.2 199.9 512.2 204.2 509.2ZM205.4 510.9C202 513.2 201.2 517.9 203.6 521.3C205.9 524.7 210.6 525.5 214 523.1C217.4 520.8 218.2 516.1 215.8 512.7C213.5 509.3 208.8 508.5 205.4 510.9Z" fill="#698CA0"/>
<path d="M43.0383 622.682C45.9324 620.653 46.6336 616.662 44.6043 613.768C42.5751 610.874 38.5839 610.173 35.6898 612.202C32.7956 614.231 32.0945 618.222 34.1237 621.116C36.1529 624.01 40.1441 624.712 43.0383 622.682Z" fill="#698CA0"/>
<path fill-rule="evenodd" clip-rule="evenodd" d="M33.9 609.6C38.3 606.5 44.3 607.6 47.3 611.9C50.3 616.3 49.3 622.3 45 625.3C40.6 628.4 34.6 627.3 31.6 623C28.5 618.6 29.6 612.6 33.9 609.6ZM35.1 611.4C31.7 613.7 30.9 618.4 33.3 621.8C35.7 625.1 40.3 626 43.7 623.6C47.1 621.3 47.9 616.6 45.5 613.2C43.2 609.8 38.5 609 35.1 611.4Z" fill="#698CA0"/>
<path d="M66.8785 818.074C69.7727 816.045 70.4738 812.054 68.4446 809.16C66.4154 806.265 62.4242 805.564 59.5301 807.593C56.6359 809.623 55.9347 813.614 57.964 816.508C59.9932 819.402 63.9844 820.103 66.8785 818.074Z" fill="#698CA0"/>
<path fill-rule="evenodd" clip-rule="evenodd" d="M57.7 804.9C62.1 801.8 68.1 802.9 71.1 807.2C74.1 811.6 73.1 817.6 68.8 820.6C64.4 823.7 58.4 822.6 55.4 818.3C52.3 813.9 53.4 807.9 57.7 804.9ZM58.9 806.7C55.5 809 54.7 813.7 57.1 817.1C59.5 820.5 64.1 821.3 67.5 818.9C70.9 816.6 71.7 811.9 69.3 808.5C67 805.1 62.3 804.3 58.9 806.7Z" fill="#698CA0"/>
<path d="M38.7723 165.358C41.6665 163.329 42.3676 159.337 40.3384 156.443C38.3092 153.549 34.318 152.848 31.4239 154.877C28.5297 156.906 27.8285 160.898 29.8578 163.792C31.887 166.686 35.8782 167.387 38.7723 165.358Z" fill="#698CA0"/>
<path fill-rule="evenodd" clip-rule="evenodd" d="M29.6 152.3C34 149.2 40 150.3 43 154.6C46 158.9 45 164.9 40.7 168C36.3 171.1 30.3 170 27.3 165.7C24.2 161.3 25.3 155.3 29.6 152.3ZM30.8 154C27.4 156.3 26.6 161 29 164.4C31.4 167.8 36 168.6 39.4 166.2C42.8 163.9 43.6 159.2 41.2 155.8C38.9 152.4 34.2 151.6 30.8 154Z" fill="#698CA0"/>
<path d="M145.199 341.552C147.325 340.062 147.839 337.131 146.349 335.006C144.859 332.88 141.928 332.366 139.803 333.856C137.677 335.346 137.162 338.277 138.653 340.402C140.143 342.528 143.074 343.043 145.199 341.552Z" fill="#698CA0"/>
<path fill-rule="evenodd" clip-rule="evenodd" d="M138.5 331.9C141.6 329.6 146.1 330.4 148.3 333.6C150.5 336.8 149.7 341.2 146.6 343.4C143.5 345.7 139 344.9 136.8 341.7C134.5 338.6 135.3 334.1 138.5 331.9ZM139.4 333.2C136.9 335 136.2 338.4 138 340.9C139.7 343.4 143.2 344 145.7 342.3C148.2 340.5 148.9 337.1 147.1 334.6C145.3 332.1 141.9 331.4 139.4 333.2Z" fill="#698CA0"/>
<path d="M268.125 766.814C270.251 765.324 270.766 762.393 269.276 760.267C267.785 758.142 264.854 757.627 262.729 759.117C260.604 760.607 260.089 763.539 261.579 765.664C263.069 767.789 266 768.304 268.125 766.814Z" fill="#698CA0"/>
<path fill-rule="evenodd" clip-rule="evenodd" d="M261.4 757.2C264.5 754.9 269 755.7 271.2 758.9C273.4 762.1 272.6 766.5 269.5 768.7C266.4 771 261.9 770.2 259.7 767C257.4 763.9 258.2 759.4 261.4 757.2ZM262.3 758.5C259.8 760.3 259.1 763.7 260.9 766.2C262.6 768.7 266.1 769.3 268.6 767.6C271.1 765.8 271.8 762.4 270 759.9C268.2 757.4 264.8 756.7 262.3 758.5Z" fill="#698CA0"/>
<path d="M117.1 719.7C115.5 717.5 112.5 716.9 110.3 718.5C108.1 720.1 107.5 723.1 109.1 725.3C110.7 727.5 113.7 728.1 115.9 726.5C118.2 725 118.7 721.9 117.1 719.7Z" fill="#698CA0"/>
<path d="M57.2 265.1C55.6 262.9 52.6 262.3 50.4 263.9C48.2 265.5 47.6 268.5 49.2 270.7C50.8 272.9 53.8 273.5 56 271.9C58.3 270.3 58.8 267.3 57.2 265.1Z" fill="#698CA0"/>
<path d="M222.8 26.3C221.2 24.1 218.2 23.5 216 25.1C213.8 26.7 213.2 29.7 214.8 31.9C216.4 34.1 219.4 34.7 221.6 33.1C223.8 31.5 224.3 28.5 222.8 26.3Z" fill="#698CA0"/>
<path d="M151.4 470C149.8 467.8 146.8 467.2 144.6 468.8C142.4 470.4 141.8 473.4 143.4 475.6C145 477.8 148 478.4 150.2 476.8C152.5 475.3 153 472.2 151.4 470Z" fill="#698CA0"/>
<path d="M172.7 810.2C171.1 808 168.1 807.4 165.9 809C163.7 810.6 163.1 813.6 164.7 815.8C166.3 818 169.3 818.6 171.5 817C173.7 815.5 174.2 812.5 172.7 810.2Z" fill="#698CA0"/>
<path d="M7.80002 497.5C6.20002 495.3 3.20002 494.7 1.00002 496.3C-1.19998 497.9 -1.79998 500.9 -0.199978 503.1C1.40002 505.3 4.40002 505.9 6.60002 504.3C8.80002 502.8 9.40002 499.7 7.80002 497.5Z" fill="#698CA0"/>
<path d="M34.11 723.049C36.2354 721.559 36.7503 718.628 35.2601 716.503C33.7699 714.377 30.8389 713.862 28.7135 715.353C26.5881 716.843 26.0732 719.774 27.5634 721.899C29.0536 724.025 31.9846 724.54 34.11 723.049Z" fill="#698CA0"/>
<path fill-rule="evenodd" clip-rule="evenodd" d="M27.4 713.4C30.5 711.1 35 711.9 37.2 715.1C39.4 718.3 38.6 722.7 35.5 725C32.4 727.3 27.9 726.5 25.7 723.3C23.4 720.1 24.2 715.6 27.4 713.4ZM28.3 714.6C25.8 716.4 25.1 719.8 26.9 722.3C28.6 724.8 32.1 725.5 34.6 723.7C37.1 721.9 37.8 718.5 36 716C34.2 713.5 30.8 712.8 28.3 714.6Z" fill="#698CA0"/>
<path d="M5.66012 118.02C8.55391 115.99 9.2545 111.999 7.22492 109.105C5.19534 106.211 1.20415 105.511 -1.68964 107.54C-4.58344 109.57 -5.28402 113.561 -3.25444 116.455C-1.22486 119.349 2.76632 120.049 5.66012 118.02Z" fill="#698CA0"/>
<path fill-rule="evenodd" clip-rule="evenodd" d="M-3.60001 105C0.799989 101.9 6.79999 103 9.79999 107.3C12.9 111.7 11.8 117.6 7.49999 120.7C3.09999 123.8 -2.90001 122.7 -5.90001 118.4C-9.00001 114 -7.90001 108 -3.60001 105ZM-2.40001 106.7C-5.80001 109 -6.60001 113.7 -4.20001 117.1C-1.80001 120.5 2.89999 121.3 6.19999 118.9C9.59999 116.6 10.4 111.9 7.99999 108.5C5.69999 105.1 0.999989 104.3 -2.40001 106.7Z" fill="#698CA0"/>
<path d="M152.456 129.034C155.35 127.004 156.051 123.013 154.021 120.119C151.991 117.225 148 116.525 145.106 118.554C142.213 120.584 141.512 124.575 143.542 127.469C145.571 130.363 149.562 131.063 152.456 129.034Z" fill="#698CA0"/>
<path fill-rule="evenodd" clip-rule="evenodd" d="M143.3 116C147.7 112.9 153.7 114 156.7 118.3C159.7 122.7 158.7 128.6 154.4 131.7C150 134.8 144 133.7 141 129.4C137.9 125 139 119 143.3 116ZM144.5 117.7C141.1 120 140.3 124.7 142.7 128.1C145 131.5 149.7 132.3 153.1 129.9C156.5 127.6 157.3 122.9 154.9 119.5C152.6 116.1 147.9 115.3 144.5 117.7Z" fill="#698CA0"/>
<path d="M155.766 639.772C158.661 637.743 159.362 633.752 157.333 630.858C155.303 627.963 151.312 627.262 148.418 629.291C145.524 631.321 144.823 635.312 146.852 638.206C148.881 641.1 152.872 641.801 155.766 639.772Z" fill="#698CA0"/>
<path fill-rule="evenodd" clip-rule="evenodd" d="M146.6 626.7C151 623.6 157 624.7 160 629C163 633.3 162 639.3 157.7 642.4C153.3 645.5 147.3 644.4 144.3 640.1C141.2 635.7 142.3 629.7 146.6 626.7ZM147.8 628.4C144.4 630.7 143.6 635.4 146 638.8C148.4 642.2 153 643 156.4 640.6C159.8 638.3 160.6 633.6 158.2 630.2C155.9 626.8 151.2 626 147.8 628.4Z" fill="#698CA0"/>
<path d="M215.495 198.343C218.389 196.313 219.089 192.322 217.06 189.428C215.03 186.535 211.039 185.834 208.145 187.864C205.251 189.893 204.551 193.884 206.58 196.778C208.61 199.672 212.601 200.372 215.495 198.343Z" fill="#698CA0"/>
<path fill-rule="evenodd" clip-rule="evenodd" d="M206.3 185.3C210.7 182.2 216.7 183.3 219.7 187.6C222.7 191.9 221.7 197.9 217.4 201C213 204.1 207 203 204 198.7C200.9 194.3 202 188.3 206.3 185.3ZM207.5 187C204.1 189.3 203.3 194 205.7 197.4C208.1 200.8 212.8 201.6 216.1 199.2C219.5 196.9 220.3 192.2 217.9 188.8C215.6 185.4 210.9 184.6 207.5 187Z" fill="#698CA0"/>
</g>
</svg>
