<svg width="289" height="823" viewBox="0 0 289 823" fill="none" xmlns="http://www.w3.org/2000/svg">
<g opacity="0.0830842">
<path d="M232.2 813.3L176.7 722.8L177.5 722.3L233.1 812.8L232.2 813.3Z" fill="#698CA0"/>
<rect x="126.725" y="812.469" width="103.1" height="0.999998" transform="rotate(-61.0333 126.725 812.469)" fill="#698CA0"/>
<rect x="6.896" y="426.638" width="0.999975" height="213.995" transform="rotate(-26.3729 6.896 426.638)" fill="#698CA0"/>
<rect x="7.21301" y="426.948" width="1.00002" height="209.605" transform="rotate(-77.2854 7.21301 426.948)" fill="#698CA0"/>
<rect x="101.999" y="617.93" width="182.096" height="0.99998" transform="rotate(-53.0934 101.999 617.93)" fill="#698CA0"/>
<rect x="116.761" y="268.098" width="0.999957" height="225.49" transform="rotate(-24.7915 116.761 268.098)" fill="#698CA0"/>
<rect x="116.912" y="268.225" width="0.999964" height="113.296" transform="rotate(-51.9738 116.912 268.225)" fill="#698CA0"/>
<rect x="205.951" y="337.661" width="0.999968" height="134.996" transform="rotate(-2.24498 205.951 337.661)" fill="#698CA0"/>
<rect x="206.123" y="337.477" width="160.404" height="1.00003" transform="rotate(-64.4189 206.123 337.477)" fill="#698CA0"/>
<rect x="116.863" y="267.613" width="172.908" height="1.00004" transform="rotate(-56.4355 116.863 267.613)" fill="#698CA0"/>
<rect x="212.401" y="124.158" width="1.00003" height="93.6027" transform="rotate(-42.313 212.401 124.158)" fill="#698CA0"/>
<path d="M116.9 268.3L27.3 177L27.9 176.2L117.5 267.5L116.9 268.3Z" fill="#698CA0"/>
<path d="M27.9 176.9L27.2 176.2L66.6 111.4L67.3 112.2L27.9 176.9Z" fill="#698CA0"/>
<rect x="66.4611" y="111.899" width="0.999963" height="163.994" transform="rotate(-17.8551 66.4611 111.899)" fill="#698CA0"/>
<rect x="176.669" y="722.419" width="95.6025" height="1.00003" transform="rotate(-68.106 176.669 722.419)" fill="#698CA0"/>
<path d="M91.4 769.8L101.9 618.1L102.9 618.2L92.4 769.9L91.4 769.8Z" fill="#698CA0"/>
<rect x="6.83759" y="426.471" width="0.999958" height="208.191" transform="rotate(-11.2335 6.83759 426.471)" fill="#698CA0"/>
<rect x="47.4011" y="630.837" width="1.00003" height="100.503" transform="rotate(-28.2154 47.4011 630.837)" fill="#698CA0"/>
<rect x="95.4285" y="719.718" width="1.00002" height="81.8018" transform="rotate(-87.6764 95.4285 719.718)" fill="#698CA0"/>
<rect x="47.6049" y="631.03" width="0.999999" height="158.6" transform="rotate(-54.5776 47.6049 631.03)" fill="#698CA0"/>
<rect x="52.1456" y="379.667" width="0.999987" height="300.596" transform="rotate(-32.2088 52.1456 379.667)" fill="#698CA0"/>
<rect x="212.322" y="633.542" width="131.805" height="1.00004" transform="rotate(-62.4202 212.322 633.542)" fill="#698CA0"/>
<rect x="52.3178" y="379.858" width="0.999969" height="184.494" transform="rotate(-59.6809 52.3178 379.858)" fill="#698CA0"/>
<rect x="52.0911" y="379.342" width="224.192" height="0.999966" transform="rotate(-78.0237 52.0911 379.342)" fill="#698CA0"/>
<rect x="52.0706" y="379.641" width="1.00004" height="365.016" transform="rotate(-19.9552 52.0706 379.641)" fill="#698CA0"/>
<rect x="99.0207" y="160.566" width="0.999962" height="179.793" transform="rotate(-79.4317 99.0207 160.566)" fill="#698CA0"/>
<rect x="98.6783" y="160.336" width="1.00005" height="207.51" transform="rotate(-31.1563 98.6783 160.336)" fill="#698CA0"/>
<rect x="52.2954" y="379.101" width="290.891" height="0.999969" transform="rotate(-39.8679 52.2954 379.101)" fill="#698CA0"/>
<rect x="66.7985" y="112.274" width="0.999958" height="224.091" transform="rotate(-68.7391 66.7985 112.274)" fill="#698CA0"/>
<rect x="91.4642" y="770.181" width="0.999999" height="55.6" transform="rotate(-39.4571 91.4642 770.181)" fill="#698CA0"/>
<path d="M232.4 813.5L127 813.2L127.4 812.3L232.9 812.6L232.4 813.5Z" fill="#698CA0"/>
<rect x="102.348" y="618.694" width="0.999963" height="111.496" transform="rotate(-81.9461 102.348 618.694)" fill="#698CA0"/>
<rect x="95.1216" y="718.881" width="269.603" height="1.00001" transform="rotate(-48.6244 95.1216 718.881)" fill="#698CA0"/>
<rect x="211.498" y="473.017" width="1.00002" height="76.2017" transform="rotate(-54.3391 211.498 473.017)" fill="#698CA0"/>
<rect x="206.017" y="337.886" width="1.00002" height="191.504" transform="rotate(-20.548 206.017 337.886)" fill="#698CA0"/>
<rect x="66.8621" y="112.281" width="0.999967" height="146.295" transform="rotate(-85.2968 66.8621 112.281)" fill="#698CA0"/>
<rect x="66.5365" y="111.519" width="141.899" height="0.999996" transform="rotate(-51.325 66.5365 111.519)" fill="#698CA0"/>
<rect x="155.185" y="1.24304" width="1.00001" height="135.501" transform="rotate(-24.948 155.185 1.24304)" fill="#698CA0"/>
<path d="M213.2 124.1L212.4 123.5L282.3 28.8L283.1 29.4L213.2 124.1Z" fill="#698CA0"/>
<path d="M155.7 1.5V0.5L282.8 28.6L282.7 29.6L155.7 1.5Z" fill="#698CA0"/>
<path d="M275.3 193L282.2 29L283.2 29.1L276.3 193.1L275.3 193Z" fill="#698CA0"/>
<path d="M27.7 177.1L27.5 176.1L99 159.6L99.2 160.6L27.7 177.1Z" fill="#698CA0"/>
<rect x="176.965" y="723" width="1.00002" height="157.903" transform="rotate(-75.2801 176.965 723)" fill="#698CA0"/>
<path d="M233.1 813.2L232.2 812.9L329.4 762.5L330.3 762.8L233.1 813.2Z" fill="#698CA0"/>
<rect x="212.383" y="634.19" width="1" height="174.1" transform="rotate(-42.2602 212.383 634.19)" fill="#698CA0"/>
<path d="M57.2343 386.237C60.9877 383.605 61.897 378.429 59.2653 374.676C56.6337 370.923 51.4576 370.013 47.7042 372.645C43.9509 375.277 43.0416 380.453 45.6732 384.206C48.3049 387.959 53.481 388.869 57.2343 386.237Z" fill="#698CA0"/>
<path fill-rule="evenodd" clip-rule="evenodd" d="M45.4 369.2C51 365.3 58.8 366.6 62.8 372.3C66.7 377.9 65.4 385.7 59.7 389.7C54.1 393.6 46.3 392.3 42.3 386.6C38.4 381 39.7 373.2 45.4 369.2ZM46.9 371.5C42.5 374.6 41.4 380.7 44.5 385.1C47.6 389.5 53.7 390.5 58.1 387.5C62.5 384.4 63.6 378.3 60.5 373.9C57.4 369.5 51.3 368.4 46.9 371.5Z" fill="#698CA0"/>
<path d="M32.3651 183.393C36.1185 180.762 37.0278 175.586 34.3961 171.832C31.7645 168.079 26.5884 167.17 22.835 169.801C19.0817 172.433 18.1724 177.609 20.804 181.362C23.4357 185.116 28.6118 186.025 32.3651 183.393Z" fill="#698CA0"/>
<path fill-rule="evenodd" clip-rule="evenodd" d="M20.4 166.3C26 162.4 33.8 163.7 37.8 169.4C41.8 175.1 40.4 182.9 34.7 186.8C29.1 190.7 21.3 189.4 17.3 183.7C13.4 178.1 14.7 170.3 20.4 166.3ZM22 168.6C17.6 171.7 16.5 177.8 19.6 182.2C22.7 186.6 28.8 187.7 33.2 184.6C37.6 181.5 38.7 175.4 35.6 171C32.5 166.6 26.4 165.5 22 168.6Z" fill="#698CA0"/>
<path d="M277.375 522.259C280.269 520.229 280.97 516.238 278.941 513.344C276.912 510.45 272.921 509.749 270.026 511.778C267.132 513.807 266.431 517.798 268.46 520.692C270.49 523.587 274.481 524.288 277.375 522.259Z" fill="#698CA0"/>
<path fill-rule="evenodd" clip-rule="evenodd" d="M268.2 509.2C272.6 506.1 278.6 507.2 281.6 511.5C284.6 515.8 283.6 521.8 279.3 524.9C274.9 528 268.9 526.9 265.9 522.6C262.8 518.2 263.9 512.2 268.2 509.2ZM269.4 510.9C266 513.2 265.2 517.9 267.6 521.3C269.9 524.7 274.6 525.5 278 523.1C281.4 520.8 282.2 516.1 279.8 512.7C277.5 509.3 272.8 508.5 269.4 510.9Z" fill="#698CA0"/>
<path d="M107.038 622.682C109.932 620.653 110.634 616.662 108.604 613.768C106.575 610.874 102.584 610.173 99.6898 612.202C96.7956 614.231 96.0945 618.222 98.1237 621.116C100.153 624.01 104.144 624.712 107.038 622.682Z" fill="#698CA0"/>
<path fill-rule="evenodd" clip-rule="evenodd" d="M97.9 609.6C102.3 606.5 108.3 607.6 111.3 611.9C114.3 616.3 113.3 622.3 109 625.3C104.6 628.4 98.6 627.3 95.6 623C92.5 618.6 93.6 612.6 97.9 609.6ZM99.1 611.4C95.7 613.7 94.9 618.4 97.3 621.8C99.7 625.1 104.3 626 107.7 623.6C111.1 621.3 111.9 616.6 109.5 613.2C107.2 609.8 102.5 609 99.1 611.4Z" fill="#698CA0"/>
<path d="M130.879 818.074C133.773 816.045 134.474 812.054 132.445 809.16C130.415 806.265 126.424 805.564 123.53 807.593C120.636 809.623 119.935 813.614 121.964 816.508C123.993 819.402 127.984 820.103 130.879 818.074Z" fill="#698CA0"/>
<path fill-rule="evenodd" clip-rule="evenodd" d="M121.7 804.9C126.1 801.8 132.1 802.9 135.1 807.2C138.1 811.6 137.1 817.6 132.8 820.6C128.4 823.7 122.4 822.6 119.4 818.3C116.3 813.9 117.4 807.9 121.7 804.9ZM122.9 806.7C119.5 809 118.7 813.7 121.1 817.1C123.5 820.5 128.1 821.3 131.5 818.9C134.9 816.6 135.7 811.9 133.3 808.5C131 805.1 126.3 804.3 122.9 806.7Z" fill="#698CA0"/>
<path d="M102.772 165.358C105.666 163.329 106.368 159.337 104.338 156.443C102.309 153.549 98.318 152.848 95.4239 154.877C92.5297 156.906 91.8285 160.898 93.8578 163.792C95.887 166.686 99.8782 167.387 102.772 165.358Z" fill="#698CA0"/>
<path fill-rule="evenodd" clip-rule="evenodd" d="M93.6 152.3C98 149.2 104 150.3 107 154.6C110 158.9 109 164.9 104.7 168C100.3 171.1 94.3 170 91.3 165.7C88.2 161.3 89.3 155.3 93.6 152.3ZM94.8 154C91.4 156.3 90.6 161 93 164.4C95.4 167.8 100 168.6 103.4 166.2C106.8 163.9 107.6 159.2 105.2 155.8C102.9 152.4 98.2 151.6 94.8 154Z" fill="#698CA0"/>
<path d="M209.199 341.552C211.325 340.062 211.839 337.131 210.349 335.006C208.859 332.88 205.928 332.366 203.803 333.856C201.677 335.346 201.162 338.277 202.653 340.402C204.143 342.528 207.074 343.043 209.199 341.552Z" fill="#698CA0"/>
<path fill-rule="evenodd" clip-rule="evenodd" d="M202.5 331.9C205.6 329.6 210.1 330.4 212.3 333.6C214.5 336.8 213.7 341.2 210.6 343.4C207.5 345.7 203 344.9 200.8 341.7C198.5 338.6 199.3 334.1 202.5 331.9ZM203.4 333.2C200.9 335 200.2 338.4 202 340.9C203.7 343.4 207.2 344 209.7 342.3C212.2 340.5 212.9 337.1 211.1 334.6C209.3 332.1 205.9 331.4 203.4 333.2Z" fill="#698CA0"/>
<path d="M9.97397 430.276C12.0994 428.786 12.6143 425.854 11.1241 423.729C9.63384 421.604 6.70282 421.089 4.57743 422.579C2.45203 424.069 1.93712 427 3.42733 429.126C4.91755 431.251 7.84857 431.766 9.97397 430.276Z" fill="#698CA0"/>
<path fill-rule="evenodd" clip-rule="evenodd" d="M3.30001 420.7C6.40001 418.4 10.9 419.2 13.1 422.4C15.4 425.6 14.6 430 11.4 432.2C8.30001 434.5 3.80001 433.7 1.60001 430.5C-0.699989 427.4 0.100011 422.9 3.30001 420.7ZM4.20001 421.9C1.70001 423.7 1.00001 427.1 2.80001 429.6C4.50001 432.1 8.00001 432.7 10.5 431C13 429.2 13.7 425.8 11.9 423.3C10.1 420.8 6.70001 420.1 4.20001 421.9Z" fill="#698CA0"/>
<path d="M51.0211 635.021C53.1465 633.531 53.6614 630.6 52.1712 628.475C50.681 626.349 47.75 625.835 45.6246 627.325C43.4992 628.815 42.9843 631.746 44.4745 633.871C45.9647 635.997 48.8958 636.512 51.0211 635.021Z" fill="#698CA0"/>
<path fill-rule="evenodd" clip-rule="evenodd" d="M44.2 625.4C47.3 623.1 51.8 623.9 54 627.1C56.3 630.3 55.5 634.7 52.4 636.9C49.2 639.2 44.7 638.4 42.5 635.2C40.2 632.1 41 627.6 44.2 625.4ZM45.1 626.6C42.6 628.4 41.9 631.8 43.7 634.3C45.5 636.8 48.9 637.4 51.4 635.7C53.9 633.9 54.6 630.5 52.8 628C51 625.5 47.6 624.8 45.1 626.6Z" fill="#698CA0"/>
<path d="M180.904 720.104C179.304 717.904 176.304 717.304 174.104 718.904C171.904 720.504 171.304 723.504 172.904 725.704C174.504 727.904 177.504 728.504 179.704 726.904C182.004 725.404 182.504 722.304 180.904 720.104Z" fill="#698CA0"/>
<path d="M96.904 769.104C95.304 766.904 92.304 766.304 90.104 767.904C87.904 769.504 87.304 772.504 88.904 774.704C90.504 776.904 93.504 777.504 95.704 775.904C98.004 774.404 98.504 771.304 96.904 769.104Z" fill="#698CA0"/>
<path d="M121.2 265.1C119.6 262.9 116.6 262.3 114.4 263.9C112.2 265.5 111.6 268.5 113.2 270.7C114.8 272.9 117.8 273.5 120 271.9C122.3 270.3 122.8 267.3 121.2 265.1Z" fill="#698CA0"/>
<path d="M286.8 26.3C285.2 24.1 282.2 23.5 280 25.1C277.8 26.7 277.2 29.7 278.8 31.9C280.4 34.1 283.4 34.7 285.6 33.1C287.8 31.5 288.3 28.5 286.8 26.3Z" fill="#698CA0"/>
<path d="M215.4 470C213.8 467.8 210.8 467.2 208.6 468.8C206.4 470.4 205.8 473.4 207.4 475.6C209 477.8 212 478.4 214.2 476.8C216.5 475.3 217 472.2 215.4 470Z" fill="#698CA0"/>
<path d="M236.7 810.2C235.1 808 232.1 807.4 229.9 809C227.7 810.6 227.1 813.6 228.7 815.8C230.3 818 233.3 818.6 235.5 817C237.7 815.5 238.2 812.5 236.7 810.2Z" fill="#698CA0"/>
<path d="M98.11 723.049C100.235 721.559 100.75 718.628 99.2601 716.503C97.7699 714.377 94.8389 713.862 92.7135 715.353C90.5881 716.843 90.0732 719.774 91.5634 721.899C93.0536 724.025 95.9846 724.54 98.11 723.049Z" fill="#698CA0"/>
<path fill-rule="evenodd" clip-rule="evenodd" d="M91.4 713.4C94.5 711.1 99 711.9 101.2 715.1C103.4 718.3 102.6 722.7 99.5 725C96.4 727.3 91.9 726.5 89.7 723.3C87.4 720.1 88.2 715.6 91.4 713.4ZM92.3 714.6C89.8 716.4 89.1 719.8 90.9 722.3C92.6 724.8 96.1 725.5 98.6 723.7C101.1 721.9 101.8 718.5 100 716C98.2 713.5 94.8 712.8 92.3 714.6Z" fill="#698CA0"/>
<path d="M69.6601 118.02C72.5539 115.99 73.2545 111.999 71.2249 109.105C69.1953 106.211 65.2042 105.511 62.3104 107.54C59.4166 109.57 58.716 113.561 60.7456 116.455C62.7751 119.349 66.7663 120.049 69.6601 118.02Z" fill="#698CA0"/>
<path fill-rule="evenodd" clip-rule="evenodd" d="M60.4 105C64.8 101.9 70.8 103 73.8 107.3C76.9 111.7 75.8 117.6 71.5 120.7C67.1 123.8 61.1 122.7 58.1 118.4C55 114 56.1 108 60.4 105ZM61.6 106.7C58.2 109 57.4 113.7 59.8 117.1C62.2 120.5 66.9 121.3 70.2 118.9C73.6 116.6 74.4 111.9 72 108.5C69.7 105.1 65 104.3 61.6 106.7Z" fill="#698CA0"/>
<path d="M216.456 129.034C219.35 127.004 220.051 123.013 218.021 120.119C215.991 117.225 212 116.525 209.106 118.554C206.213 120.584 205.512 124.575 207.542 127.469C209.571 130.363 213.562 131.063 216.456 129.034Z" fill="#698CA0"/>
<path fill-rule="evenodd" clip-rule="evenodd" d="M207.3 116C211.7 112.9 217.7 114 220.7 118.3C223.7 122.7 222.7 128.6 218.4 131.7C214 134.8 208 133.7 205 129.4C201.9 125 203 119 207.3 116ZM208.5 117.7C205.1 120 204.3 124.7 206.7 128.1C209 131.5 213.7 132.3 217.1 129.9C220.5 127.6 221.3 122.9 218.9 119.5C216.6 116.1 211.9 115.3 208.5 117.7Z" fill="#698CA0"/>
<path d="M219.766 639.772C222.661 637.743 223.362 633.752 221.333 630.858C219.303 627.963 215.312 627.262 212.418 629.291C209.524 631.321 208.823 635.312 210.852 638.206C212.881 641.1 216.872 641.801 219.766 639.772Z" fill="#698CA0"/>
<path fill-rule="evenodd" clip-rule="evenodd" d="M210.6 626.7C215 623.6 221 624.7 224 629C227 633.3 226 639.3 221.7 642.4C217.3 645.5 211.3 644.4 208.3 640.1C205.2 635.7 206.3 629.7 210.6 626.7ZM211.8 628.4C208.4 630.7 207.6 635.4 210 638.8C212.4 642.2 217 643 220.4 640.6C223.8 638.3 224.6 633.6 222.2 630.2C219.9 626.8 215.2 626 211.8 628.4Z" fill="#698CA0"/>
<path d="M279.495 198.343C282.389 196.313 283.089 192.322 281.06 189.428C279.03 186.535 275.039 185.834 272.145 187.864C269.251 189.893 268.551 193.884 270.58 196.778C272.61 199.672 276.601 200.372 279.495 198.343Z" fill="#698CA0"/>
<path fill-rule="evenodd" clip-rule="evenodd" d="M270.3 185.3C274.7 182.2 280.7 183.3 283.7 187.6C286.7 191.9 285.7 197.9 281.4 201C277 204.1 271 203 268 198.7C264.9 194.3 266 188.3 270.3 185.3ZM271.5 187C268.1 189.3 267.3 194 269.7 197.4C272.1 200.8 276.8 201.6 280.1 199.2C283.5 196.9 284.3 192.2 281.9 188.8C279.6 185.4 274.9 184.6 271.5 187Z" fill="#698CA0"/>
</g>
</svg>
