<svg width="70" height="70" viewBox="0 0 70 70" fill="none" xmlns="http://www.w3.org/2000/svg">
<path opacity="0.8" fill-rule="evenodd" clip-rule="evenodd" d="M32.6858 51.3827C32.6858 50.6145 33.2699 50 34 50C34.7301 50 35.3142 50.6145 35.3142 51.3827V57.5419C37.9956 58.1704 40 60.6844 40 63.6872C40 67.1648 37.3053 70 34 70C30.6947 70 28 67.1648 28 63.6872C28 60.6844 30.0044 58.1704 32.6858 57.5419V51.3827ZM34 67.2486C35.8584 67.2486 37.3717 65.6564 37.3717 63.7011C37.3717 61.7458 35.8584 60.1536 34 60.1536C32.1416 60.1536 30.6283 61.7458 30.6283 63.7011C30.6283 65.6564 32.1416 67.2486 34 67.2486Z" fill="#001F42"/>
<path opacity="0.8" fill-rule="evenodd" clip-rule="evenodd" d="M35.3142 18.6173C35.3142 19.3855 34.7301 20 34 20C33.2699 20 32.6858 19.3855 32.6858 18.6173V12.4581C30.0044 11.8296 28 9.31564 28 6.31285C28 2.8352 30.6947 0 34 0C37.3053 0 40 2.8352 40 6.31285C40 9.31564 37.9956 11.8296 35.3142 12.4581V18.6173ZM34 2.7514C32.1416 2.7514 30.6283 4.34358 30.6283 6.29888C30.6283 8.25419 32.1416 9.84637 34 9.84637C35.8584 9.84637 37.3717 8.25419 37.3717 6.29888C37.3717 4.34358 35.8584 2.7514 34 2.7514Z" fill="#001F42"/>
<path opacity="0.8" fill-rule="evenodd" clip-rule="evenodd" d="M63.6872 40C60.6844 40 58.1704 37.9956 57.5419 35.3142H51.3827C50.6145 35.3142 50 34.7301 50 34C50 33.2699 50.6145 32.6858 51.3827 32.6858H57.5419C58.1704 30.0044 60.6844 28 63.6872 28C67.1648 28 70 30.6947 70 34C70 37.3053 67.1648 40 63.6872 40ZM63.7011 30.6283C61.7458 30.6283 60.1536 32.1416 60.1536 34C60.1536 35.8584 61.7458 37.3717 63.7011 37.3717C65.6564 37.3717 67.2486 35.8584 67.2486 34C67.2486 32.1416 65.6564 30.6283 63.7011 30.6283Z" fill="#001F42"/>
<path opacity="0.8" fill-rule="evenodd" clip-rule="evenodd" d="M6.31285 40C2.8352 40 0 37.3053 0 34C0 30.6947 2.82123 28 6.31285 28C9.31564 28 11.8296 30.0044 12.4581 32.6858H18.6173C19.3855 32.6858 20 33.2699 20 34C20 34.7301 19.3855 35.3142 18.6173 35.3142H12.4581C11.8296 37.9956 9.31564 40 6.31285 40ZM6.29888 37.3717C8.25419 37.3717 9.84637 35.8584 9.84637 34C9.84637 32.1416 8.25419 30.6283 6.29888 30.6283C4.34358 30.6283 2.7514 32.1416 2.7514 34C2.7514 35.8584 4.34358 37.3717 6.29888 37.3717Z" fill="#001F42"/>
<path opacity="0.8" fill-rule="evenodd" clip-rule="evenodd" d="M44.3989 46.3096C43.867 45.7778 43.867 44.9324 44.3989 44.4006C44.9171 43.8688 45.7763 43.8688 46.3081 44.3869L50.563 48.6413C51.5312 48.0277 52.6631 47.6868 53.8496 47.6868C55.486 47.6868 57.0407 48.3277 58.1999 49.4867C60.6 51.8867 60.6 55.8002 58.1999 58.2001C57.0407 59.3591 55.4997 60 53.8496 60C52.2131 60 50.6584 59.3591 49.4993 58.2001C48.3401 57.041 47.6991 55.5002 47.6991 53.8502C47.6991 52.6775 48.0264 51.5458 48.6537 50.564L44.3989 46.3096ZM53.8496 50.4004C52.9359 50.4004 52.0631 50.7549 51.4085 51.4094C50.7539 52.0639 50.3857 52.923 50.3993 53.8639C50.3993 54.7775 50.7539 55.6502 51.4085 56.3047C52.0631 56.9592 52.9222 57.3137 53.8496 57.3137C54.7633 57.3137 55.6361 56.9592 56.2906 56.3047C57.6407 54.9547 57.6407 52.7594 56.2906 51.4094C55.6361 50.7549 54.7769 50.4004 53.8496 50.4004Z" fill="#001F42"/>
<path opacity="0.8" fill-rule="evenodd" clip-rule="evenodd" d="M15.1504 9C16.7869 9 18.3416 9.64109 19.5007 10.8005C20.6736 11.9599 21.3145 13.5013 21.3009 15.1517C21.3009 16.3248 20.9736 17.4569 20.3463 18.439L24.6011 22.6948C25.133 23.2268 25.133 24.0725 24.6011 24.6044C24.342 24.8636 23.9874 25 23.6465 25C23.3056 25 22.951 24.8636 22.6919 24.6044L18.437 20.3487C17.4688 20.9625 16.3369 21.3035 15.1504 21.3035C13.514 21.3035 11.9593 20.6624 10.8001 19.503C9.64095 18.3436 9 16.8022 9 15.1517C9 13.5149 9.64095 11.9599 10.8001 10.8005C11.9593 9.64109 13.5003 9 15.1504 9ZM15.1504 18.6027C16.0641 18.6027 16.9369 18.2481 17.5915 17.5934C18.2461 16.9386 18.6143 16.0793 18.6007 15.1517C18.6007 14.2379 18.2461 13.3649 17.5915 12.7101C16.9369 12.0554 16.0778 11.7008 15.1504 11.7008C14.2367 11.7008 13.3639 12.0554 12.7094 12.7101C12.0548 13.3512 11.7002 14.2379 11.7002 15.1517C11.7002 16.0656 12.0548 16.9386 12.7094 17.5934C13.3639 18.2481 14.2231 18.6027 15.1504 18.6027Z" fill="#001F42"/>
<path opacity="0.8" fill-rule="evenodd" clip-rule="evenodd" d="M48.6498 18.4446C48.0366 17.477 47.696 16.3458 47.696 15.1601C47.696 13.5111 48.3364 11.971 49.5082 10.799C50.6664 9.64055 52.2061 9 53.8548 9C55.4899 9 57.0432 9.64055 58.2014 10.799C60.5995 13.1976 60.5995 17.109 58.2014 19.5077C57.0432 20.6661 55.5035 21.3066 53.8548 21.3066C52.683 21.3066 51.5521 20.9796 50.571 20.3526L46.3062 24.6048C46.0473 24.8637 45.693 25 45.3524 25C45.0117 25 44.6574 24.8637 44.3986 24.6048C43.8671 24.0733 43.8671 23.2283 44.3986 22.6968L48.6498 18.4446ZM53.8548 11.7121C52.9419 11.7121 52.0698 12.0664 51.4158 12.7206C50.7618 13.3612 50.3939 14.2334 50.4075 15.1738C50.4075 16.0869 50.7618 16.9591 51.4158 17.6133C52.0698 18.2675 52.9283 18.6218 53.8548 18.6218C54.7677 18.6218 55.6398 18.2675 56.2938 17.6133C57.6428 16.2641 57.6428 14.0698 56.2938 12.7206C55.6398 12.0664 54.7814 11.7121 53.8548 11.7121Z" fill="#001F42"/>
<path opacity="0.8" fill-rule="evenodd" clip-rule="evenodd" d="M22.6919 44.3989C23.2237 43.867 24.0693 43.867 24.6011 44.3989C25.133 44.9171 25.133 45.7763 24.6011 46.2945L20.3463 50.5493C21.86 52.9359 21.5736 56.127 19.5007 58.1999C18.3416 59.359 16.8006 60 15.1504 60C13.514 60 11.9593 59.359 10.8001 58.1999C9.64095 57.0407 9 55.4997 9 53.8496C9 52.2131 9.64095 50.6584 10.8001 49.4993C11.9593 48.3401 13.5003 47.6991 15.1504 47.6991C16.3232 47.6991 17.4551 48.0264 18.437 48.6537L22.6919 44.3989ZM15.1504 57.2998C16.0641 57.2998 16.9369 56.9452 17.5915 56.2906C18.9416 54.9542 18.9416 52.7586 17.5915 51.4085C16.9369 50.7539 16.0778 50.3993 15.1504 50.3993C14.2367 50.3993 13.3639 50.7539 12.7094 51.4085C12.0548 52.0631 11.7002 52.9222 11.7002 53.8496C11.7002 54.7633 12.0548 55.6361 12.7094 56.2906C13.3639 56.9452 14.2231 57.2998 15.1504 57.2998Z" fill="#001F42"/>
<path d="M32.5193 36.3808H35.4678C36.5494 36.3808 37.4249 37.3488 37.4249 38.5587C37.4249 39.7544 36.5494 40.7224 35.4678 40.7224H30.1631C29.4549 40.7224 28.8884 41.3488 28.8884 42.1317C28.8884 42.9146 29.4549 43.5409 30.1631 43.5409H32.7253V45.5907C32.7253 46.3737 33.2918 47 34 47C34.7082 47 35.2747 46.3737 35.2747 45.5907V43.5409H35.4807C37.9657 43.5409 40 41.306 40 38.5587C40 35.8114 37.9785 33.5623 35.4807 33.5623H32.5322C31.4506 33.5623 30.5751 32.5943 30.5751 31.3986C30.5751 30.2028 31.4506 29.2349 32.5322 29.2349H37.7339C38.4421 29.2349 39.0086 28.6085 39.0086 27.8256C39.0086 27.0427 38.4421 26.4164 37.7339 26.4164H35.2747V24.4093C35.2747 23.6263 34.7082 23 34 23C33.2918 23 32.7253 23.6263 32.7253 24.4093V26.4164H32.5193C30.0343 26.4164 28 28.6512 28 31.4128C28.0129 34.1459 30.0343 36.3808 32.5193 36.3808Z" fill="#001F42"/>
</svg>
