<svg width="73" height="63" viewBox="0 0 73 63" fill="none" xmlns="http://www.w3.org/2000/svg">
<path opacity="0.795573" fill-rule="evenodd" clip-rule="evenodd" d="M15.3447 50.8115C15.7951 50.2929 16.0672 49.6242 16.0672 48.8948C16.0672 47.5086 15.0862 46.3405 13.7621 46.0088V45.1694C13.7621 44.758 13.4181 44.4244 12.9938 44.4244C12.5694 44.4244 12.2254 44.758 12.2254 45.1694V45.9145H10.6887V45.1694C10.6887 44.758 10.3447 44.4244 9.92039 44.4244C9.49606 44.4244 9.15205 44.758 9.15205 45.1694V45.9145H8.3837C7.96019 45.9145 7.61536 46.2483 7.61536 46.6596C7.61536 47.0706 7.96106 47.4046 8.3837 47.4046H9.15205V51.1299V54.8553H8.3837C7.96183 54.8553 7.61536 55.1885 7.61536 55.6003C7.61536 56.0113 7.96106 56.3454 8.3837 56.3454H9.15205V57.0904C9.15205 57.5019 9.49606 57.8355 9.92039 57.8355C10.3447 57.8355 10.6887 57.5019 10.6887 57.0904V56.3454H12.2254V57.0904C12.2254 57.5019 12.5694 57.8355 12.9938 57.8355C13.4181 57.8355 13.7621 57.5019 13.7621 57.0904V56.3454C15.4568 56.3454 16.8355 55.0084 16.8355 53.3651C16.8355 52.2828 16.2373 51.3335 15.3447 50.8115ZM10.6887 47.4046H12.9938C13.8411 47.4046 14.5305 48.0731 14.5305 48.8948C14.5305 49.7164 13.8411 50.3849 12.9938 50.3849H10.6887V47.4046ZM10.6887 54.8553H13.7621C14.6095 54.8553 15.2988 54.1868 15.2988 53.3651C15.2988 52.5435 14.6095 51.875 13.7621 51.875H10.6887V54.8553Z" fill="#001F42"/>
<path d="M47.3893 46.1008C47.8345 46.1008 48.2665 45.8686 48.5153 45.456C48.8687 44.8499 48.6593 44.0633 48.0439 43.7151L37.413 37.6672V25.5843C37.413 24.8751 36.837 24.3077 36.1169 24.3077C35.3968 24.3077 34.8208 24.8751 34.8208 25.5843V37.6672L24.1899 43.7151C23.5746 44.0633 23.352 44.8499 23.7186 45.456C23.9542 45.8686 24.3994 46.1008 24.8445 46.1008C25.0671 46.1008 25.2896 46.0492 25.486 45.9331L36.1169 39.8852L46.7478 45.9331C46.9442 46.0492 47.1668 46.1008 47.3893 46.1008Z" fill="#001F42"/>
<path opacity="0.795573" d="M35.6949 20.1167C36.1882 20.1167 36.5828 19.7254 36.5828 19.2363V17.671H36.8609C38.7623 17.671 40.305 16.1414 40.305 14.256C40.305 12.3706 38.7623 10.841 36.8609 10.841H34.5289C33.6141 10.841 32.8607 10.1028 32.8607 9.1868C32.8607 8.27968 33.6051 7.53264 34.5289 7.53264H38.6368C39.13 7.53264 39.5247 7.14134 39.5247 6.65221C39.5247 6.16307 39.13 5.77177 38.6368 5.77177H36.5828V4.23322C36.5828 3.74409 36.1882 3.35278 35.6949 3.35278C35.2016 3.35278 34.807 3.74409 34.807 4.23322V5.77177H34.5289C32.6275 5.77177 31.0848 7.30142 31.0848 9.1868C31.0848 11.0722 32.6275 12.6018 34.5289 12.6018H36.8609C37.7757 12.6018 38.5291 13.34 38.5291 14.256C38.5291 15.1631 37.7847 15.9102 36.8609 15.9102H32.6724C32.1791 15.9102 31.7844 16.3015 31.7844 16.7906C31.7844 17.2797 32.1791 17.671 32.6724 17.671H34.807V19.2363C34.807 19.7165 35.2016 20.1167 35.6949 20.1167Z" fill="#001F42"/>
<path opacity="0.795573" fill-rule="evenodd" clip-rule="evenodd" d="M48.6869 51.1299C48.6869 44.6594 53.9511 39.3952 60.4217 39.3952C66.8922 39.3952 72.1564 44.6594 72.1564 51.1299C72.1564 57.6005 66.8922 62.8647 60.4217 62.8647C53.9511 62.8647 48.6869 57.6005 48.6869 51.1299ZM50.8205 51.1299C50.8205 56.4241 55.1275 60.7311 60.4217 60.7311C65.7158 60.7311 70.0228 56.4241 70.0228 51.1299C70.0228 45.8358 65.7158 41.5288 60.4217 41.5288C55.1275 41.5288 50.8205 45.8358 50.8205 51.1299Z" fill="#001F42"/>
<path opacity="0.795573" fill-rule="evenodd" clip-rule="evenodd" d="M0.90979 51.1299C0.90979 44.6594 6.17398 39.3952 12.6445 39.3952C19.1151 39.3952 24.3793 44.6594 24.3793 51.1299C24.3793 57.6005 19.1151 62.8647 12.6445 62.8647C6.17398 62.8647 0.90979 57.6005 0.90979 51.1299ZM3.04338 51.1299C3.04338 56.4241 7.35041 60.7311 12.6445 60.7311C17.9386 60.7311 22.2457 56.4241 22.2457 51.1299C22.2457 45.8358 17.9386 41.5288 12.6445 41.5288C7.35041 41.5288 3.04338 45.8358 3.04338 51.1299Z" fill="#001F42"/>
<path opacity="0.795573" fill-rule="evenodd" clip-rule="evenodd" d="M23.5411 11.7347C23.5411 5.26419 28.8053 0 35.2758 0C41.7464 0 47.0105 5.26419 47.0105 11.7347C47.0105 18.2053 41.7464 23.4695 35.2758 23.4695C28.8053 23.4695 23.5411 18.2053 23.5411 11.7347ZM25.6747 11.7347C25.6747 17.0289 29.9817 21.3359 35.2758 21.3359C40.5699 21.3359 44.877 17.0289 44.877 11.7347C44.877 6.44062 40.5699 2.13359 35.2758 2.13359C29.9817 2.13359 25.6747 6.44062 25.6747 11.7347Z" fill="#001F42"/>
<path opacity="0.795573" d="M64.5542 55.4524C64.4936 55.3722 64.3974 55.3243 64.2968 55.3243H57.9081L58.6882 52.0981L63.8376 50.2269C63.9615 50.18 64.0442 50.06 64.0442 49.9282V48.714C64.0442 48.6101 63.9934 48.5127 63.9074 48.4524C63.8214 48.3922 63.7143 48.3782 63.6127 48.4137L59.3491 49.9282L60.8795 43.9903C60.906 43.894 60.8855 43.7901 60.826 43.7137C60.7654 43.6341 60.6697 43.5862 60.5691 43.5862H59.3101C59.1619 43.5862 59.0337 43.6863 58.9986 43.8283L57.2712 50.712L55.6034 51.3163C55.4774 51.3626 55.3925 51.4832 55.3925 51.6166V52.9718C55.3925 53.0773 55.4444 53.1758 55.5304 53.2344C55.6169 53.2952 55.7321 53.3087 55.8289 53.271L56.6477 52.96L55.7559 56.6007C55.7321 56.6965 55.7537 56.7961 55.8154 56.8757C55.877 56.9532 55.969 56.9973 56.0679 56.9973H63.6127C63.7538 56.9973 63.8804 56.9037 63.9204 56.7691L64.605 55.7354C64.6337 55.6385 64.5542 55.4524 64.5542 55.4524Z" fill="#001F42"/>
</svg>
