<svg width="64" height="71" viewBox="0 0 64 71" fill="none" xmlns="http://www.w3.org/2000/svg">
<path opacity="0.690784" d="M0 36.53C0 37.3467 0.643053 38 1.44687 38C2.25069 38 2.89374 37.3467 2.89374 36.53C2.89374 20.6574 15.4917 7.70988 31.0565 7.45746L29.0835 9.46195C28.5135 10.041 28.5135 10.9616 29.0835 11.5407C29.3612 11.8228 29.7412 11.9713 30.1066 11.9713C30.4719 11.9713 30.8519 11.8228 31.1296 11.5407L35.5725 7.02686C36.1425 6.44779 36.1425 5.5272 35.5725 4.94813L31.1296 0.434307C30.5596 -0.144769 29.6535 -0.144769 29.0835 0.434307C28.5135 1.01338 28.5135 1.93397 29.0835 2.51304L31.0711 4.53238C13.8987 4.7551 0 19.0241 0 36.53Z" fill="#001F42"/>
<path opacity="0.690784" d="M62.553 34C61.7491 34 61.106 34.6362 61.106 35.4314C61.106 50.8878 48.5067 63.4959 32.9403 63.7417L34.9135 61.7898C35.4836 61.2259 35.4836 60.3294 34.9135 59.7655C34.3435 59.2016 33.4373 59.2016 32.8672 59.7655L28.4239 64.161C28.1462 64.4357 28 64.7972 28 65.1731C28 65.549 28.1462 65.9105 28.4239 66.1852L32.8672 70.5807C33.1449 70.8554 33.525 71 33.8904 71C34.2558 71 34.6358 70.8554 34.9135 70.5807C35.4836 70.0168 35.4836 69.1204 34.9135 68.5565L32.9257 66.5901C50.0999 66.3732 64 52.4783 64 35.4314C63.9999 34.6362 63.3569 34 62.553 34Z" fill="#001F42"/>
<path opacity="0.8" fill-rule="evenodd" clip-rule="evenodd" d="M23.7644 32.8668C24.7836 30.529 26.7123 28.6975 29.174 27.7296C30.3971 27.2531 31.6829 27 33 27C37.0612 27 40.6833 29.308 42.2356 32.8668C43.2548 35.2045 43.2548 37.7955 42.2356 40.1332C41.2164 42.471 39.2877 44.3025 36.826 45.2704C35.6029 45.7618 34.3171 46 33 46C28.9388 46 25.3167 43.692 23.7644 40.1332C22.7452 37.7955 22.7452 35.2045 23.7644 32.8668ZM39.3661 39.0165C40.0717 37.3934 40.0717 35.6215 39.3661 33.9984C38.3 31.5415 35.7912 29.9483 33 29.9483C32.0906 29.9483 31.2125 30.127 30.3657 30.4545C28.6566 31.1246 27.3395 32.3754 26.6339 33.9984C25.9283 35.6215 25.9283 37.3934 26.6339 39.0165C27.7001 41.4734 30.1933 43.0666 33 43.0666C33.9094 43.0666 34.7875 42.8879 35.6343 42.5603C37.3434 41.8903 38.6605 40.6395 39.3661 39.0165Z" fill="#001F42"/>
<path opacity="0.8" fill-rule="evenodd" clip-rule="evenodd" d="M35.3966 17.5545L36.0165 16.0571C36.5306 14.8017 37.7402 14 39.0859 14C39.5244 14 39.9478 14.0908 40.356 14.2571L43.1835 15.4218C44 15.7697 44.6502 16.405 44.9828 17.2217C45.3155 18.0385 45.3155 18.946 44.9828 19.7628L44.3629 21.2602C45.633 22.2283 46.767 23.3778 47.7498 24.6483L49.2467 24.0282C49.655 23.8618 50.0784 23.7711 50.5168 23.7711C51.8625 23.7711 53.0722 24.5727 53.5863 25.813L54.7505 28.6415C55.0832 29.4582 55.0832 30.3658 54.7505 31.1825C54.4027 31.9993 53.7677 32.6497 52.9512 32.9825L51.4543 33.6026C51.666 35.1908 51.666 36.7941 51.4543 38.3974L52.9512 39.0175C53.7677 39.3654 54.4179 40.0007 54.7505 40.8175C55.0832 41.6342 55.0832 42.5418 54.7505 43.3585L53.5863 46.187C53.0722 47.4273 51.8625 48.2289 50.5168 48.2289C50.0784 48.2289 49.655 48.1382 49.2467 47.9718L47.7498 47.3517C46.7821 48.6222 45.633 49.7566 44.3629 50.7398L44.9828 52.2372C45.3155 53.054 45.3155 53.9615 44.9828 54.7783C44.6351 55.5951 44 56.2454 43.1835 56.5782L40.356 57.7429C39.9478 57.9092 39.5244 58 39.0859 58C37.7402 58 36.5306 57.1983 36.0165 55.9581L35.3966 54.4606C33.8089 54.6724 32.1911 54.6724 30.6034 54.4606L29.9835 55.9581C29.4694 57.1983 28.2598 58 26.9141 58C26.4756 58 26.0522 57.9092 25.644 57.7429L22.8165 56.5782C21.123 55.8824 20.3216 53.9464 21.0172 52.2523L21.6371 50.7549C20.367 49.7869 19.233 48.6373 18.2502 47.3668L16.7533 47.9869C16.345 48.1533 15.9216 48.2441 15.4832 48.2441C14.1375 48.2441 12.9278 47.4424 12.4137 46.2021L11.2495 43.3737C10.9168 42.5569 10.9168 41.6494 11.2495 40.8326C11.5973 40.0158 12.2323 39.3654 13.0488 39.0327L14.5457 38.4125C14.334 36.8243 14.334 35.221 14.5457 33.6177L13.0488 32.9976C12.2323 32.6497 11.5821 32.0144 11.2495 31.1977C10.9168 30.3809 10.9168 29.4734 11.2495 28.6566L12.4137 25.8281C12.9278 24.5878 14.1375 23.7862 15.4832 23.7862C15.9216 23.7862 16.345 23.8769 16.7533 24.0433L18.2502 24.6635C19.2179 23.3929 20.367 22.2585 21.6371 21.2754L21.0172 19.7779C20.6845 18.9612 20.6845 18.0536 21.0172 17.2369C21.3649 16.4201 22 15.7697 22.8165 15.4369L25.644 14.2723C26.0522 14.1059 26.4756 14.0151 26.9141 14.0151C28.2598 14.0151 29.4694 14.8168 29.9835 16.0571L30.6034 17.5545C32.1911 17.3427 33.8089 17.3427 35.3966 17.5545ZM38.7835 17.1915L37.71 19.7931C37.4378 20.4586 36.7271 20.8216 36.0467 20.6703C34.0357 20.2771 31.9643 20.2771 29.9684 20.6703C29.2729 20.8065 28.5622 20.4435 28.29 19.7779L27.2165 17.1763C27.156 17.0251 27.0199 16.9797 26.9141 16.9797C26.8782 16.9797 26.8518 16.9892 26.8198 17.0006C26.8114 17.0037 26.8026 17.0068 26.7931 17.01L23.9656 18.1746C23.8598 18.22 23.8144 18.2956 23.7842 18.3561C23.754 18.4015 23.7388 18.4923 23.7842 18.5981L24.8577 21.1997C25.1299 21.8501 24.888 22.6215 24.2983 23.0148C22.5897 24.1492 21.1533 25.6012 20.0041 27.3104C19.611 27.9003 18.855 28.1272 18.1897 27.8549L15.589 26.781C15.5795 26.7779 15.5707 26.7747 15.5623 26.7717C15.5304 26.7602 15.5039 26.7508 15.468 26.7508C15.3622 26.7508 15.2261 26.7962 15.1656 26.9474L14.0014 29.7759C13.956 29.8666 13.9711 29.9574 14.0014 30.0179C14.0165 30.0633 14.0619 30.1389 14.1677 30.1843L16.7684 31.2582C17.4186 31.5304 17.7966 32.2413 17.6605 32.9371C17.2674 34.9639 17.2522 37.0058 17.6605 39.0175C17.7966 39.7284 17.4337 40.4242 16.7684 40.6965L14.1677 41.7704C14.077 41.8006 14.0316 41.8762 14.0014 41.9367C13.9711 41.9821 13.956 42.0729 14.0014 42.1788L15.1656 45.0072C15.2261 45.1585 15.3622 45.2038 15.468 45.2038C15.5039 45.2038 15.5304 45.1944 15.5623 45.1829C15.5707 45.1799 15.5795 45.1768 15.589 45.1736L18.1897 44.0997C18.8399 43.8274 19.611 44.0694 20.0041 44.6593C21.1381 46.3685 22.5897 47.8054 24.2983 48.955C24.888 49.3482 25.1148 50.1045 24.8426 50.77L23.7691 53.3716C23.6935 53.538 23.7691 53.7346 23.9354 53.7951L26.7629 54.9598C26.7724 54.9629 26.7812 54.9661 26.7896 54.9691C26.8215 54.9806 26.848 54.99 26.8838 54.99C26.9897 54.99 27.1258 54.9447 27.1863 54.7934L28.2598 52.1918C28.532 51.5414 29.2426 51.1633 29.9381 51.2994C31.9491 51.6927 34.0206 51.6927 36.0165 51.2994C36.1072 51.2843 36.2131 51.2692 36.3038 51.2692C36.8935 51.2692 37.4378 51.6171 37.6797 52.1918L38.7533 54.7934C38.8137 54.9447 38.9498 54.99 39.0557 54.99C39.0916 54.99 39.118 54.9806 39.1499 54.9691C39.1584 54.9661 39.1672 54.9629 39.1766 54.9598L42.0041 53.7951C42.11 53.7649 42.1553 53.6892 42.1856 53.6287C42.2158 53.5834 42.2309 53.4926 42.1856 53.3867L41.112 50.7851C40.8399 50.1348 41.0818 49.3634 41.6715 48.9701C43.3801 47.8357 44.8165 46.3836 45.9656 44.6745C46.3588 44.0846 47.1148 43.8577 47.7801 44.1299L50.3808 45.2038C50.3902 45.207 50.399 45.2102 50.4074 45.2132C50.4394 45.2246 50.4658 45.2341 50.5017 45.2341C50.6076 45.2341 50.7436 45.1887 50.8041 45.0375L51.9684 42.209C52.0137 42.1183 51.9986 42.0275 51.9684 41.967C51.9533 41.9216 51.9079 41.846 51.8021 41.8006L49.2014 40.7267C48.5512 40.4545 48.1732 39.7436 48.3093 39.0478C48.7024 37.021 48.7175 34.979 48.3093 32.9673C48.1732 32.2564 48.5361 31.5607 49.2014 31.2884L51.8021 30.2145C51.9533 30.1389 52.0289 29.9574 51.9684 29.791L50.8041 26.9625C50.7436 26.8113 50.6076 26.7659 50.5017 26.7659C50.4658 26.7659 50.4394 26.7754 50.4075 26.7868C50.399 26.7898 50.3902 26.793 50.3808 26.7962L47.7801 27.8701C47.1299 28.1423 46.3588 27.9003 45.9656 27.3104C44.8316 25.6012 43.3801 24.1643 41.6715 23.0148C41.0818 22.6215 40.855 21.8652 41.1271 21.1997L42.2007 18.5981C42.246 18.5074 42.2309 18.4166 42.2007 18.3561C42.1856 18.3108 42.1402 18.2351 42.0344 18.1898L39.2069 17.0251C39.1974 17.0219 39.1886 17.0188 39.1802 17.0158C39.1482 17.0043 39.1218 16.9948 39.0859 16.9948C38.9801 16.9948 38.844 17.0402 38.7835 17.1915Z" fill="#001F42"/>
</svg>
