<svg width="180" height="30" viewBox="0 0 180 30" fill="none" xmlns="http://www.w3.org/2000/svg">
<path d="M13.1552 30L6.98034 8.39261H6.79447C7.0836 12.0725 7.22816 14.9316 7.22816 16.9699V30H0V0H10.8629L17.1617 21.2996H17.3269L23.5018 0H34.3854V30H26.8888V16.8468C26.8888 16.1628 26.8956 15.4036 26.9094 14.5691C26.9369 13.7346 27.0333 11.6895 27.1985 8.43365H27.0127L20.9204 30H13.1552Z" fill="white"/>
<path d="M51.671 11.1218L56.8753 0H65.7143L55.7807 18.2832V30H47.5613V18.5294L37.6277 0H46.508L51.671 11.1218Z" fill="white"/>
<path d="M70 29.6013V0.458472H74.7731V25.5149H87.1351V29.6013H70Z" fill="white"/>
<path d="M118.09 14.99C118.09 19.7342 116.898 23.4219 114.515 26.0532C112.145 28.6844 108.784 30 104.43 30C100.023 30 96.6346 28.6977 94.2647 26.093C91.9081 23.4751 90.7298 19.7608 90.7298 14.9502C90.7298 10.1395 91.9148 6.44518 94.2847 3.86711C96.6679 1.28904 100.063 0 104.47 0C108.81 0 112.165 1.30897 114.535 3.92691C116.905 6.54485 118.09 10.2326 118.09 14.99ZM95.8025 14.99C95.8025 18.5781 96.5281 21.3023 97.9793 23.1628C99.4305 25.01 101.581 25.9336 104.43 25.9336C107.266 25.9336 109.403 25.0166 110.841 23.1827C112.292 21.3488 113.017 18.6179 113.017 14.99C113.017 11.4153 112.298 8.70432 110.861 6.85714C109.436 5.00997 107.306 4.08638 104.47 4.08638C101.607 4.08638 99.4438 5.00997 97.9793 6.85714C96.5281 8.70432 95.8025 11.4153 95.8025 14.99Z" fill="white"/>
<path d="M136.304 13.794H147.048V28.4252C145.29 28.9967 143.6 29.402 141.975 29.6412C140.364 29.8804 138.62 30 136.743 30C132.323 30 128.914 28.6977 126.518 26.093C124.121 23.4751 122.923 19.7874 122.923 15.0299C122.923 10.3389 124.274 6.6711 126.977 4.02658C129.68 1.36877 133.401 0.0398671 138.141 0.0398671C141.19 0.0398671 144.079 0.624585 146.808 1.79402L145.131 5.7608C142.761 4.6711 140.391 4.12625 138.021 4.12625C134.906 4.12625 132.443 5.10299 130.632 7.05648C128.821 9.00997 127.916 11.6811 127.916 15.0698C127.916 18.6312 128.728 21.3422 130.352 23.2027C131.99 25.0498 134.34 25.9734 137.402 25.9734C138.946 25.9734 140.597 25.7807 142.355 25.3953V17.8804H136.304V13.794Z" fill="white"/>
<path d="M180 14.99C180 19.7342 178.808 23.4219 176.425 26.0532C174.055 28.6844 170.694 30 166.34 30C161.933 30 158.545 28.6977 156.175 26.093C153.818 23.4751 152.64 19.7608 152.64 14.9502C152.64 10.1395 153.825 6.44518 156.195 3.86711C158.578 1.28904 161.973 0 166.38 0C170.72 0 174.075 1.30897 176.445 3.92691C178.815 6.54485 180 10.2326 180 14.99ZM157.712 14.99C157.712 18.5781 158.438 21.3023 159.889 23.1628C161.34 25.01 163.491 25.9336 166.34 25.9336C169.176 25.9336 171.313 25.0166 172.751 23.1827C174.202 21.3488 174.927 18.6179 174.927 14.99C174.927 11.4153 174.208 8.70432 172.771 6.85714C171.346 5.00997 169.216 4.08638 166.38 4.08638C163.517 4.08638 161.354 5.00997 159.889 6.85714C158.438 8.70432 157.712 11.4153 157.712 14.99Z" fill="white"/>
</svg>
